<?xml version="1.0" encoding="utf-8"?>
<!-- Generator: Adobe Illustrator 24.3.0, SVG Export Plug-In . SVG Version: 6.00 Build 0)  -->
<svg version="1.1" id="Layer_1" xmlns="http://www.w3.org/2000/svg" xmlns:xlink="http://www.w3.org/1999/xlink" x="0px" y="0px"
	 viewBox="0 0 113.5 113.5" style="enable-background:new 0 0 113.5 113.5;" xml:space="preserve">
<style type="text/css">
	.st0{fill:#231F20;}
	.st1{fill:#FFFFFF;}
</style>
<circle class="st0" cx="56.8" cy="56.8" r="54.5"/>
<g>
	<path class="st1" d="M33.9,66.5H22.6l-2.5,8.2h-8.7l12.4-36h9.4l12.4,36h-9.4L33.9,66.5z M28.1,48.3l-4.8,15.6h9.6L28.1,48.3z"/>
	<polygon class="st1" points="47.4,74.7 47.4,72.6 52.4,72.6 52.4,40.9 47.4,40.9 47.4,38.8 66.3,38.8 66.3,40.9 61.3,40.9 
		61.3,72.6 66.3,72.6 66.3,74.7 	"/>
	<path class="st1" d="M90.6,66.5H79.3l-2.5,8.2h-8.7l12.4-36H90l12.4,36h-9.2L90.6,66.5z M84.9,48.3l-4.8,15.6h9.6L84.9,48.3z"/>
</g>
</svg>
